# xmcd CD database file
#
# Track frame offsets:
#	150
#	16773
#	31203
#	51217
#	64980
#	82236
#	95720
#	108717
#	121647
#	147774
#	163750
#
# Disc length: 2578 seconds
#
# Revision: 0
# Processed by: cddbd v1.5.2PL0 Copyright (c) Steve Scherf et al.
# Submitted via: CDex 1.99.1
#
DISCID=930a100b
DTITLE=The Snakehandlers Blues Band - Rock Plus Roll
DYEAR=2010
DGENRE=Blues
TTITLE0=Bad Girls
TTITLE1=Ain't Stayin' the Night
TTITLE2=Too Much Again
TTITLE3=Slip Into the Leather
TTITLE4=Long Legged Woman
TTITLE5=Daddy's Little Angel
TTITLE6=Crazy Woman Blues
TTITLE7=My Cadillac
TTITLE8=Face Down and Fallin'
TTITLE9=V-Twin Woman
TTITLE10=Ninety Miles An Hour
EXTD=YEAR: 2010
EXTT0=
EXTT1=
EXTT2=
EXTT3=
EXTT4=
EXTT5=
EXTT6=
EXTT7=
EXTT8=
EXTT9=
EXTT10=
PLAYORDER=
